<svg fill="none" viewBox="0 0 36 36" height="36" width="36" xmlns="http://www.w3.org/2000/svg" class="mr-2 h-[34px]">
    <path xmlns="http://www.w3.org/2000/svg"
        d="M1.48718 14.3513C0.671352 14.9473 0.507389 16.1002 1.12169 16.9024C1.61734 17.5496 1.61769 18.4518 1.12178 19.0988C0.507107 19.9007 0.671574 21.0528 1.48745 21.6489C2.14565 22.1297 2.39704 22.9969 2.10245 23.7569C1.73793 24.6974 2.21807 25.7588 3.16752 26.0994C3.93366 26.3742 4.41829 27.1365 4.34883 27.9475C4.26285 28.9512 5.02143 29.8362 6.02714 29.8946C6.83854 29.9417 7.51752 30.5359 7.6785 31.3326C7.87789 32.3194 8.85517 32.9543 9.83552 32.7254C10.6273 32.5404 11.4456 32.9171 11.8234 33.637C12.2915 34.5288 13.4074 34.8599 14.2832 34.3626C14.9899 33.9612 15.8792 34.0895 16.4443 34.6737C17.1455 35.3986 18.3091 35.3986 19.0103 34.6737C19.5754 34.0895 20.4647 33.9612 21.1714 34.3626C22.0472 34.8599 23.1631 34.5288 23.6312 33.637C24.0091 32.9171 24.8274 32.5404 25.6191 32.7254C26.5995 32.9543 27.5767 32.3194 27.7761 31.3326C27.9371 30.5359 28.6161 29.9417 29.4275 29.8946C30.4332 29.8362 31.1918 28.9512 31.1058 27.9475C31.0363 27.1365 31.521 26.3742 32.2871 26.0994C33.2366 25.7588 33.7167 24.6974 33.3522 23.7569C33.0576 22.9969 33.309 22.1297 33.9672 21.6489C34.7831 21.0528 34.9475 19.9007 34.3329 19.0988C33.8369 18.4518 33.8373 17.5496 34.3329 16.9024C34.9472 16.1002 34.7833 14.9473 33.9675 14.3513C33.3091 13.8703 33.0576 13.0031 33.3523 12.2429C33.7168 11.3024 33.2366 10.2412 32.2871 9.90061C31.521 9.62581 31.0363 8.86346 31.1058 8.0525C31.1918 7.04903 30.433 6.16433 29.4275 6.10669C28.6162 6.06017 27.9371 5.46617 27.7761 4.66964C27.5767 3.68265 26.5995 3.04729 25.6188 3.27565C24.8271 3.46002 24.0092 3.08351 23.6312 2.36384C23.1629 1.47235 22.0476 1.14153 21.1716 1.63827C20.4647 2.03916 19.5756 1.91069 19.0106 1.32657C18.3092 0.601497 17.1455 0.601497 16.444 1.32657C15.879 1.91069 14.9899 2.03916 14.283 1.63827C13.407 1.14153 12.2918 1.47235 11.8235 2.36384C11.4454 3.08351 10.6275 3.46002 9.83579 3.27565C8.8551 3.04729 7.87792 3.68265 7.67849 4.66964C7.51755 5.46617 6.83842 6.06017 6.02712 6.10669C5.02163 6.16433 4.26287 7.04903 4.34882 8.0525C4.41829 8.86346 3.93366 9.62581 3.16752 9.90061C2.21807 10.2412 1.73786 11.3024 2.10238 12.2429C2.39704 13.0031 2.14555 13.8703 1.48718 14.3513Z"
        fill="url(#paint0_linear_2447_7912)"></path>
    <g xmlns="http://www.w3.org/2000/svg" clip-path="url(#clip0_2447_7912)">
        <path d="M19.6619 9.37451L25.2932 21.4766L25.8718 12.2415L19.6619 9.37451Z" fill="currentColor"
            class="dark:fill-white fill-black"></path>
        <path d="M9.53442 12.242L10.1153 21.4867L15.763 9.36035L9.53442 12.242Z" fill="currentColor"
            class="dark:fill-white fill-black"></path>
        <path d="M19.9418 19.3913L17.7176 13.9775L15.4819 19.3913H19.9418Z" fill="currentColor"
            class="dark:fill-white fill-black"></path>
        <path d="M14.3125 22.1108L13.4524 24.213L17.7176 26.6404L21.9797 24.213L21.103 22.1108H14.3125Z"
            fill="currentColor" class="dark:fill-white fill-black"></path>
    </g>
    <defs xmlns="http://www.w3.org/2000/svg">
        <linearGradient id="paint0_linear_2447_7912" x1="0.000206195" y1="6.8454e-06" x2="35.2802" y2="36"
            gradientUnits="userSpaceOnUse">
            <stop stop-color="#FF0021"></stop>
            <stop offset="1" stop-color="#8600FF"></stop>
        </linearGradient>
        <linearGradient id="paint1_linear_2447_7912" x1="117.267" y1="22.5001" x2="51.4546" y2="22.5001"
            gradientUnits="userSpaceOnUse">
            <stop stop-color="#FF0021"></stop>
            <stop offset="1" stop-color="#8600FF"></stop>
        </linearGradient>
        <clipPath id="clip0_2447_7912">
            <rect width="16.3375" height="17.28" fill="white" transform="translate(9.53442 9.36035)"></rect>
        </clipPath>
    </defs>
</svg>