<?xml version="1.0" encoding="iso-8859-1"?>
<!-- Generator: Adobe Illustrator 26.0.3, SVG Export Plug-In . SVG Version: 6.00 Build 0)  -->
<svg version="1.1" xmlns="http://www.w3.org/2000/svg" xmlns:xlink="http://www.w3.org/1999/xlink" x="0px" y="0px"
	 viewBox="0 0 80 80" style="enable-background:new 0 0 80 80;" xml:space="preserve">
<g id="Layer_1">
</g>
<g id="&#x421;&#x43B;&#x43E;&#x439;_1">


	<g>
		<g>
			<path fill="#9dffd3" d="M51,30.984c-0.271,0-0.521-0.101-0.71-0.29c-0.09-0.101-0.16-0.21-0.21-0.33S50,30.114,50,29.984s0.03-0.26,0.08-0.38
				s0.12-0.23,0.21-0.33c0.37-0.37,1.05-0.37,1.42,0c0.09,0.1,0.16,0.21,0.21,0.33s0.08,0.25,0.08,0.38c0,0.27-0.101,0.52-0.29,0.71
				C51.52,30.883,51.27,30.984,51,30.984z"/>
		</g>
		<g>
			<path fill="#9dffd3" d="M64.399,29.984c0-0.55,0.45-1,1-1l0,0c0.551,0,1,0.45,1,1l0,0c0,0.55-0.449,1-1,1l0,0
				C64.85,30.984,64.399,30.534,64.399,29.984z M60.8,29.984c0-0.55,0.45-1,1-1l0,0c0.55,0,1,0.45,1,1l0,0c0,0.55-0.45,1-1,1l0,0
				C61.25,30.984,60.8,30.534,60.8,29.984z M57.2,29.984c0-0.55,0.449-1,1-1l0,0c0.55,0,1,0.45,1,1l0,0c0,0.55-0.45,1-1,1l0,0
				C57.649,30.984,57.2,30.534,57.2,29.984z M53.6,29.984c0-0.55,0.45-1,1-1l0,0c0.55,0,1,0.45,1,1l0,0c0,0.55-0.45,1-1,1l0,0
				C54.05,30.984,53.6,30.534,53.6,29.984z"/>
		</g>
		<g>
			<path fill="#9dffd3" d="M69,30.984c-0.271,0-0.521-0.101-0.71-0.29c-0.19-0.19-0.29-0.44-0.29-0.71c0-0.13,0.02-0.26,0.08-0.38
				c0.05-0.12,0.12-0.23,0.21-0.33c0.37-0.37,1.04-0.37,1.42,0c0.09,0.1,0.16,0.21,0.21,0.33s0.08,0.25,0.08,0.38
				s-0.03,0.26-0.08,0.38s-0.12,0.229-0.21,0.33C69.52,30.883,69.27,30.984,69,30.984z"/>
		</g>
	</g>

	<g>
		<path fill="white" d="M61.315,69.984H18.685c-1.465,0-2.708-1.048-2.956-2.49l-9.311-54c-0.15-0.874,0.09-1.764,0.661-2.442
			s1.408-1.067,2.295-1.067h61.252c0.887,0,1.724,0.389,2.295,1.067s0.812,1.568,0.661,2.442l-9.311,54
			C64.023,68.936,62.78,69.984,61.315,69.984z M9.374,11.984c-0.3,0-0.571,0.126-0.765,0.355s-0.271,0.519-0.221,0.814l9.311,54
			c0.083,0.481,0.497,0.83,0.985,0.83h42.631c0.488,0,0.902-0.349,0.985-0.83l9.311-54c0.051-0.296-0.027-0.585-0.221-0.814
			s-0.465-0.355-0.765-0.355H9.374z"/>
	</g>

	<g>
		<path fill="white" d="M48,49.984H32c-0.492,0-0.911-0.358-0.987-0.844l-3-19c-0.046-0.289,0.037-0.584,0.228-0.806
			c0.189-0.223,0.468-0.351,0.76-0.351h22c0.292,0,0.57,0.128,0.76,0.351c0.19,0.222,0.273,0.517,0.228,0.806l-3,19
			C48.911,49.625,48.492,49.984,48,49.984z M32.854,47.984h14.291l2.685-17H30.17L32.854,47.984z"/>
	</g>
</g>
</svg>
