<?xml version="1.0" encoding="iso-8859-1"?>
<!-- Generator: Adobe Illustrator 23.0.3, SVG Export Plug-In . SVG Version: 6.00 Build 0)  -->
<svg version="1.1" xmlns="http://www.w3.org/2000/svg" xmlns:xlink="http://www.w3.org/1999/xlink" x="0px" y="0px"
	 viewBox="0 0 24 24" style="enable-background:new 0 0 24 24;" xml:space="preserve">
<g id="filled">
</g>
<g id="outlined">
	<rect x="16" y="3" width="3" height="3" fill="#9dffd3"/>
	<path fill="white" d="M19,16.702c0,1-0.235,4.294-3.141,5.294L13,20.702c2.078-0.906,3-2.484,3-4C16,14.608,16,8,16,8h3
		C19,8,19,14.452,19,16.702z"/>
	<path fill="white" d="M11,3v5.159C10.653,8.018,9.904,8,9.535,8C6.759,8,4.19,9.306,4.19,13c0,4.42,3.48,5,5.81,5c0.92,0,3-0.09,4-0.38V3H11z
		 M9.97,15.533c-1.31,0-2.58-0.413-2.58-2.533s1.27-2.45,2.58-2.45c0.32,0,0.68,0.06,1.03,0.14v4.703
		C10.65,15.473,10.29,15.533,9.97,15.533z"/>
</g>
<g id="rounded">
</g>
<g id="two_x5F_tone">
</g>
<g id="sharp">
</g>
<g id="win10">
</g>
<g id="ios_x5F_out">
</g>
<g id="ios_x5F_filled">
</g>
<g id="color">
</g>
</svg>
