<svg xmlns="http://www.w3.org/2000/svg" width="456" height="100" viewBox="-70 655 920 200">
<g>
        <path fill="#ffffff" d="M767.5,665.75v85.44L710.05,674.5a23.24,23.24,0,0,0-18.17-8.75h0a21,21,0,0,0-21,21v92.47A20.26,20.26,0,0,0,691,799.51l12.06.06V722.13L754,790.34a23.87,23.87,0,0,0,30.67,5.93c9.68-5.48,15.05-13.83,15.05-24.9V689.73a24,24,0,0,0-24-24Z"/>
        <path fill="#ffffff"  d="M275.86,715.92h-71.6a3.73,3.73,0,0,1-3.72-3.72v-8.64a4.36,4.36,0,0,1,4.36-4.35h70.85a24.89,24.89,0,0,0,25.07-25.07v-8.36H192.06a24.79,24.79,0,0,0-24.79,24.73l-.09,33.84a25,25,0,0,0,25,25l72.39,0a3.06,3.06,0,0,1,3.06,3.06V763a3.06,3.06,0,0,1-3.06,3.06H190.69a23.36,23.36,0,0,0-23.36,23.36v10.05l108.52.07a25,25,0,0,0,25-25V740.87A25,25,0,0,0,275.86,715.92Z"/>
        <path fill="#ffffff"  d="M501.36,778.61a20.87,20.87,0,0,0,20.87,20.86l87.87-.05a25,25,0,0,0,25-24.95v-8.42H534.79V749.34H610.1a25,25,0,0,0,25-25v-8.46H534.79V699.21H610.1a25,25,0,0,0,25-25v-8.47H522.22a20.86,20.86,0,0,0-20.86,20.86Z"/>
        <path fill="#ffffff"  d="M0,776.84a22.64,22.64,0,0,0,22.64,22.63l86.1-.05a25,25,0,0,0,25-24.95v-8.42H33.42V749.34h75.32a25,25,0,0,0,25-25v-8.46H33.42V699.21h75.32a25,25,0,0,0,25-25v-8.47H22.63A22.63,22.63,0,0,0,0,688.41Z"/>
        <path  fill="#ffffff" d="M334.24,699.21h50.14V799.48h33.53l-.11-25.07v-75.2H443a25,25,0,0,0,24.95-25v-8.47H358a23.75,23.75,0,0,0-23.75,23.75Z"/>
</g>
</svg>
