<svg width="230" height="48" viewBox="0 0 230 48" xmlns="http://www.w3.org/2000/svg">
    <!-- Logo -->
    <g>
        <path
            d="M23.9687 15.9956C19.5536 15.9956 15.9641 19.5861 15.9641 23.9993C15.9641 28.4144 19.5536 32.0048 23.9687 32.0048C28.382 32.0048 31.9733 28.4144 31.9733 23.9993C31.9733 19.5861 28.382 15.9956 23.9687 15.9956ZM23.9687 32.7759C19.1298 32.7759 15.1921 28.8383 15.1921 23.9993C15.1921 19.1612 19.1298 15.2246 23.9687 15.2246C28.8077 15.2246 32.7434 19.1612 32.7434 23.9993C32.7434 28.8383 28.8077 32.7759 23.9687 32.7759Z"
            fill="#2886B4" />
        <path
            d="M10.4659 24.0011C10.4825 31.4542 16.5138 37.4855 23.9669 37.4964C31.4217 37.4855 37.4529 31.4542 37.4659 24.0011C37.4529 16.5445 31.4217 10.5151 23.9669 10.5021C16.5138 10.5151 10.4825 16.5445 10.4659 24.0011ZM8.06116 24.0011C8.06488 15.2153 15.1828 8.09746 23.9669 8.09363C32.7507 8.09746 39.8705 15.2153 39.8744 24.0011C39.8705 32.7834 32.7507 39.9049 23.9669 39.9049C15.1828 39.9049 8.06488 32.7834 8.06116 24.0011Z"
            fill="#2886B4" />
        <path
            d="M45.2244 24.0012C45.204 12.259 35.7073 2.76407 23.9687 2.74554C23.3023 2.74554 22.7655 2.20686 22.7655 1.54039C22.7655 0.874035 23.3023 0.337158 23.9687 0.337158C37.0383 0.337158 47.631 10.9298 47.631 24.0012H47.6327C47.6327 24.6658 47.0922 25.2026 46.4295 25.2026C45.7612 25.2026 45.2244 24.6658 45.2244 24.0012Z"
            fill="#2886B4" />
        <path
            d="M0.304688 24.0012V22.798H23.967C24.6314 22.798 25.1702 23.3367 25.1702 24.0012C25.1702 24.6659 24.6314 25.2026 23.967 25.2026H2.74651C3.38699 36.3803 12.6337 45.2346 23.967 45.2586C24.6314 45.2586 25.1702 45.7992 25.1702 46.462C25.1702 47.1265 24.6314 47.6634 23.967 47.6634C10.8992 47.6634 0.304688 37.0726 0.304688 24.0012Z"
            fill="#2886B4" />
    </g>

    <!-- Company name scaled to same height as logo -->
    <g transform="translate(58, 5) scale(2.1)">
        <path fill-rule="evenodd" clip-rule="evenodd"
            d="M33.0396 7.98089L29.9835 6.33703C29.2733 5.96439 29.1872 5.83288 29.1872 5.63562C29.1872 5.46027 29.2733 5.28493 29.6392 5.28493C31.2533 5.28493 33.7283 5.48219 34.869 5.6137C35.2349 5.65754 35.2994 5.43835 35.2994 5.17534V1.9095C35.2994 1.6684 35.1057 1.53689 34.869 1.47113C33.922 1.16428 31.4901 0.857422 29.6392 0.857422C25.1411 0.857422 23.8713 2.91776 23.8713 5.30685C23.8713 7.0603 24.4093 8.68228 26.4539 9.88778L29.6822 11.7947C30.1772 12.0796 30.2848 12.255 30.2848 12.4742C30.2848 12.8687 30.1126 13.1536 29.4885 13.1536C28.3501 13.1536 26.6447 12.9706 25.5472 12.8528C25.2752 12.8236 25.0407 12.7984 24.8613 12.781C24.517 12.7372 24.4093 12.9783 24.4093 13.2194V16.4852C24.4093 16.7263 24.6246 16.8578 24.8613 16.9236C26.0665 17.2962 27.6376 17.5811 29.4885 17.5811C34.0081 17.5811 35.7944 14.9071 35.7944 12.3426C35.7944 10.4577 34.9766 9.03297 33.0396 7.98089ZM10.1193 1.07617H14.5958C14.8756 1.07617 14.9617 1.27344 14.9187 1.51454L12.3576 14.7532C11.9271 16.9889 10.2699 17.5807 7.64429 17.5807C5.01861 17.5807 3.3614 16.9889 2.93097 14.7532L0.369854 1.51454C0.326811 1.27344 0.412898 1.07617 0.692709 1.07617H5.16926C5.406 1.07617 5.57817 1.27344 5.62122 1.51454L7.45056 13.1093C7.47212 13.2847 7.49361 13.3943 7.64429 13.3943C7.79494 13.3943 7.81643 13.2847 7.83799 13.1093L9.66733 1.51454C9.71038 1.27344 9.88255 1.07617 10.1193 1.07617ZM17.198 1.07617H21.3948C21.6316 1.07617 21.8253 1.27344 21.8253 1.51454V16.9231C21.8253 17.1643 21.6316 17.3615 21.3948 17.3615H17.198C16.9613 17.3615 16.7461 17.1643 16.7461 16.9231V1.51454C16.7461 1.27344 16.9613 1.07617 17.198 1.07617ZM43.4129 6.33703L46.469 7.98089C48.406 9.03297 49.2238 10.4577 49.2238 12.3426C49.2238 14.9071 47.4375 17.5811 42.9179 17.5811C41.0671 17.5811 39.4959 17.2962 38.2907 16.9236C38.054 16.8578 37.8388 16.7263 37.8388 16.4852V13.2194C37.8388 12.9783 37.9464 12.7372 38.2907 12.781C38.4701 12.7984 38.7046 12.8236 38.9764 12.8528C40.074 12.9706 41.7794 13.1536 42.9179 13.1536C43.542 13.1536 43.7142 12.8687 43.7142 12.4742C43.7142 12.255 43.6066 12.0796 43.1116 11.7947L39.8834 9.88778C37.8388 8.68228 37.3007 7.0603 37.3007 5.30685C37.3007 2.91776 38.5705 0.857422 43.0686 0.857422C44.9195 0.857422 47.3514 1.16428 48.2984 1.47113C48.5351 1.53689 48.7288 1.6684 48.7288 1.9095V5.17534C48.7288 5.43835 48.6643 5.65754 48.2984 5.6137C47.1577 5.48219 44.6827 5.28493 43.0686 5.28493C42.7027 5.28493 42.6166 5.46027 42.6166 5.63562C42.6166 5.83288 42.7027 5.96439 43.4129 6.33703ZM55.9183 1.07617H51.7215C51.4848 1.07617 51.2695 1.27344 51.2695 1.51454V16.9231C51.2695 17.1643 51.4848 17.3615 51.7215 17.3615H55.9183C56.155 17.3615 56.3487 17.1643 56.3487 16.9231V1.51454C56.3487 1.27344 56.155 1.07617 55.9183 1.07617ZM71.4124 1.07617H74.2318C74.6407 1.07617 74.985 1.42686 74.985 1.84331V17.1204C74.985 17.3615 74.7913 17.3615 74.6407 17.3615H70.4009C70.2287 17.3615 70.0996 17.1643 70.0996 16.9231V10.0627C70.0996 9.88735 70.0996 9.86543 69.9704 9.86543C69.8844 9.86543 69.8413 9.93118 69.7552 10.0627L68.1626 12.4737C67.9474 12.8025 67.8183 12.8902 67.5815 12.8902H66.3332C66.0965 12.8902 65.9674 12.8025 65.7521 12.4737L64.1595 10.0627C64.0734 9.93118 64.0304 9.86543 63.9443 9.86543C63.8152 9.86543 63.8152 9.88735 63.8152 10.0627V16.9231C63.8152 17.1643 63.686 17.3615 63.5139 17.3615H59.274C59.1234 17.3615 58.9297 17.3615 58.9297 17.1204V1.84331C58.9297 1.42686 59.274 1.07617 59.683 1.07617H62.5023C63.148 1.07617 63.4708 1.31727 63.7506 1.79947L66.6991 6.64342C66.7852 6.79688 66.8713 6.88455 66.9574 6.88455C67.0435 6.88455 67.1296 6.79688 67.2156 6.64342L70.1642 1.79947C70.4439 1.31727 70.7667 1.07617 71.4124 1.07617Z"
            fill="#FFFFFF" />
    </g>
</svg>