<?xml version="1.0" encoding="UTF-8"?>
<!DOCTYPE svg PUBLIC "-//W3C//DTD SVG 1.1//EN" "http://www.w3.org/Graphics/SVG/1.1/DTD/svg11.dtd">
<svg class="shape-codepen" viewBox="0 0 300 64.4" x="0px" y="0px" width="300px" xmlns="http://www.w3.org/2000/svg" xml:space="preserve" xmlns:xlink="http://www.w3.org/1999/xlink">
            <use xmlns:xlink="http://www.w3.org/1999/xlink" xlink:href="#icon-VROOM_logo_RGB_white">
<symbol viewBox="0 0 300 64.4" id="icon-VROOM_logo_RGB_white"><title>VROOM.be - Explore. Choose. Drive.</title>  <style type="text/css">  .st0{fill:#ED1C24;} .st1{fill:#FFFFFF;}  </style> <g> <path class="st1" d="M238.2,4.3C237.9,1.4,236.5,0,234,0c-2.2,0-4.1,1.3-5.6,3.5l-16.2,23.2l-7.4-23.2c-0.7-2.2-2.3-3.5-4.5-3.5   c-2.7,0-4.6,1.4-5.8,4.3l-9.1,21.1l1.8-10.3c1.4-8-3.9-14.5-11.9-14.5h-17.3c-7,0-13.8,5-16.2,11.7c-0.1-6.7-5.1-11.7-12.1-11.7   h-17.3c-6.8,0-13.3,4.7-16,10.9C95.8,5.3,91,0.6,84.2,0.6H43.3l-20.5,27l-10.9-27H0L16.4,39c0.9,2,2.2,3.3,4.4,3.3   c2.2,0,4-1.3,5.6-3.3L51.7,6.4l-6.2,35.3h10.4l1.9-11h5.3l14.1,11h14.2l-14.1-11h1.6c2.4,0,4.8-0.6,7-1.6c3.6-1.5,6.5-4,8.2-7.4   l-1,5.6c-1.4,8,3.9,14.5,11.9,14.5h17.3c7,0,13.8-5,16.2-11.7c0.1,6.7,5.1,11.7,12.1,11.7H168c4.9,0,9.6-2.4,12.9-6.1l-2.7,6.1   h10.3l9.9-23l6.4,19.7c0.8,2.4,2.2,3.9,4.7,3.9c2.4,0,4.1-1.5,5.8-3.9l13.6-19l1.7,22.2H241L238.2,4.3z M85.5,15l-0.2,1.4   c-0.5,2.7-3,4.8-5.7,4.8h-20l1.9-11h20C84.2,10.2,86,12.4,85.5,15z M132,15.4l-2,11.5c-0.5,2.9-3.2,5.2-6.1,5.2h-16.9   c-2.9,0-4.8-2.3-4.3-5.2l2-11.5c0.5-2.9,3.2-5.2,6.1-5.2h16.9C130.6,10.2,132.5,12.6,132,15.4z M177.7,15.4l-2,11.5   c-0.5,2.9-3.2,5.2-6.1,5.2h-16.9c-2.9,0-4.8-2.3-4.3-5.2l2-11.5c0.5-2.9,3.2-5.2,6.1-5.2h16.9C176.3,10.2,178.2,12.6,177.7,15.4z"/> <g> <path class="st1" d="M151.5,49.9c-0.9-0.8-1.8-1.2-3.2-1.2c-4.5,0-6.3,4.6-6.5,7.7c-0.1,1.6,0.3,2.9,1.2,3.7    c0.7,0.8,1.8,1.2,3.1,1.2c1.3,0,2.5-0.4,3.7-1.2L150,60l-0.7-1l-0.2,0.1c-0.8,0.5-1.5,1-2.8,1c-0.8,0-1.6-0.3-2-0.8    c-0.6-0.6-0.9-1.5-0.8-2.8c0.1-2.2,1.3-6.5,5-6.5c0.9,0,1.5,0.2,2.3,0.8l0.1,0.1l0.9-0.9L151.5,49.9z"/> <path class="st1" d="M209,49h-2.1c-0.3,0-0.6,0.2-0.6,0.5L204,61.1l0,0.1h2.9c6.2,0,7-5.8,7-7.6c0.1-1.4-0.3-2.6-1-3.3    C212.2,49.4,210.8,49,209,49z M207.1,59.9h-1.4l1.9-9.7h1.4c0.9,0,2.1,0.1,2.8,0.8c0.5,0.5,0.7,1.4,0.7,2.5    C212.4,55.1,211.9,59.9,207.1,59.9z"/> <path class="st1" d="M136.4,55.7c-0.7,0-1.2,0.5-1.3,1.1c0,0.3,0.1,0.5,0.2,0.7c0.2,0.2,0.5,0.3,0.8,0.3c0.7,0,1.2-0.5,1.3-1.1    c0-0.3-0.1-0.5-0.2-0.7C137,55.8,136.7,55.7,136.4,55.7z"/> <path class="st1" d="M199.5,55.7c-0.7,0-1.2,0.5-1.3,1.1c0,0.3,0.1,0.5,0.2,0.7c0.2,0.2,0.5,0.3,0.8,0.3c0.7,0,1.2-0.5,1.3-1.1    c0-0.3-0.1-0.5-0.2-0.7C200.1,55.8,199.8,55.7,199.5,55.7z"/> <path class="st1" d="M83.9,55.5l0.3-1.3h-4.4l0.7-3.9h5L86,49l-6.2,0c-0.3,0-0.5,0.2-0.6,0.5L77,61.2h6.8l0.2-1.3h-5.3l0.8-4.3    H83.9z"/> <path class="st1" d="M128.6,52.3c-3.4,0-4.8,3.3-4.9,5.5c0,1.1,0.2,2,0.8,2.7c0.6,0.6,1.4,0.9,2.4,0.9c1.1,0,2.1-0.3,3.1-1    l0.2-0.1l-0.6-0.9l-0.2,0.1c-0.7,0.5-1.4,0.7-2.2,0.7c-0.1,0-0.1,0-0.2,0c-0.8,0-1.3-0.3-1.7-0.9c-0.1-0.1-0.1-0.3-0.2-0.5l0,0    c-0.1-0.2-0.1-0.5-0.1-0.8c4.1-0.3,6-1.4,6.1-3.4c0-0.6-0.2-1.1-0.5-1.5C130.3,52.6,129.5,52.3,128.6,52.3z M125.4,56.7    c0.2-0.8,0.9-3.1,3.2-3.1c0.5,0,0.8,0.1,1,0.3c0.2,0.2,0.2,0.4,0.2,0.6C129.7,55.8,128.4,56.4,125.4,56.7z"/> <path class="st1" d="M191.8,52.3c-3.4,0-4.8,3.3-4.9,5.5c0,1.1,0.2,2,0.8,2.7c0.6,0.6,1.4,0.9,2.4,0.9c1.1,0,2.1-0.3,3.1-1    l0.2-0.1l-0.6-0.9l-0.2,0.1c-0.7,0.5-1.4,0.7-2.2,0.7c-0.9,0-1.5-0.3-1.8-0.9c-0.1-0.1-0.1-0.3-0.2-0.5c-0.1-0.2-0.1-0.5-0.1-0.8    c4.1-0.3,6-1.4,6.1-3.4c0-0.6-0.2-1.1-0.5-1.5C193.5,52.6,192.7,52.3,191.8,52.3z M188.6,56.7c0.2-0.8,0.9-3.1,3.2-3.1    c0.5,0,0.8,0.1,1,0.3c0.2,0.2,0.2,0.4,0.2,0.6C192.9,55.8,191.5,56.4,188.6,56.7z"/> <path class="st1" d="M241.2,54.5c0-0.6-0.2-1.1-0.5-1.5c-0.5-0.5-1.2-0.8-2.2-0.8c-3.4,0-4.8,3.3-4.9,5.5c0,1.1,0.2,2,0.8,2.7    c0.6,0.6,1.4,0.9,2.4,0.9c1.1,0,2.1-0.3,3.1-1l0.2-0.1l-0.6-0.9l-0.2,0.1c-0.7,0.5-1.4,0.7-2.2,0.7c-0.9,0-1.5-0.3-1.8-0.9    c-0.1-0.1-0.1-0.3-0.2-0.5l0,0c-0.1-0.2-0.1-0.5-0.1-0.8C239.2,57.6,241.2,56.5,241.2,54.5z M235.3,56.7c0.2-0.8,0.9-3.1,3.2-3.1    c0.5,0,0.8,0.1,1,0.3c0.2,0.2,0.2,0.4,0.2,0.6C239.7,55.8,238.3,56.4,235.3,56.7z"/> <path class="st1" d="M113.2,52.3c-3.6,0-4.7,3.6-4.8,5.5c0,1.1,0.2,2.1,0.8,2.7c0.6,0.6,1.4,0.9,2.4,0.9c3.6,0,4.7-3.6,4.8-5.5    c0-1.1-0.2-2.1-0.8-2.7C115,52.6,114.2,52.3,113.2,52.3z M111.7,60.1c-0.6,0-1-0.2-1.3-0.5c-0.3-0.4-0.5-0.9-0.5-1.7    c0.1-1.5,0.8-4.3,3.2-4.3c0.6,0,1,0.2,1.3,0.5c0.3,0.4,0.5,0.9,0.5,1.7C114.8,57.4,114,60.1,111.7,60.1z"/> <path class="st1" d="M165.4,52.3c-3.6,0-4.7,3.6-4.8,5.5c0,1.1,0.2,2.1,0.8,2.7c0.6,0.6,1.4,0.9,2.4,0.9c3.6,0,4.7-3.6,4.8-5.5    c0-1.1-0.2-2.1-0.8-2.7C167.2,52.6,166.4,52.3,165.4,52.3z M163.9,60.1c-0.6,0-1-0.2-1.3-0.5c-0.3-0.4-0.5-0.9-0.5-1.7    c0.1-1.5,0.8-4.3,3.2-4.3c0.6,0,1,0.2,1.3,0.5c0.3,0.4,0.5,0.9,0.5,1.7C167,57.4,166.3,60.1,163.9,60.1z"/> <path class="st1" d="M174.5,52.3c-3.6,0-4.7,3.6-4.8,5.5c0,1.1,0.2,2.1,0.8,2.7c0.6,0.6,1.4,0.9,2.4,0.9c3.6,0,4.7-3.6,4.8-5.5    c0-1.1-0.2-2.1-0.8-2.7C176.4,52.6,175.6,52.3,174.5,52.3z M173,60.1c-0.6,0-1-0.2-1.3-0.5c-0.3-0.4-0.5-0.9-0.5-1.7    c0.1-1.5,0.8-4.3,3.2-4.3c0.6,0,1,0.2,1.3,0.5c0.3,0.4,0.5,0.9,0.5,1.7C176.2,57.4,175.4,60.1,173,60.1z"/> <path class="st1" d="M100,52.3c-0.9,0-1.7,0.3-2.5,0.9l0-0.8h-1.2L94,64.1L94,64.4h0.7c0.4,0,0.9-0.3,1-0.8l0.5-2.5    c0.6,0.2,1.1,0.2,1.7,0.2c3.7,0,4.8-3.6,4.9-5.7c0.1-1.2-0.2-2-0.8-2.6C101.5,52.6,100.8,52.3,100,52.3z M97.9,60.1    c-0.7,0-1.1-0.1-1.5-0.2l0.9-5c0.7-0.6,1.4-1.2,2.4-1.2c0.5,0,0.8,0.1,1,0.4c0.3,0.3,0.5,0.9,0.4,1.6    C101.2,57.1,100.4,60.1,97.9,60.1z"/> <path class="st1" d="M123.4,52.4c-0.2-0.1-0.5-0.1-0.8-0.1c-0.9,0-1.7,0.3-2.5,0.9l0-0.7H119l-1.7,8.8l0,0.1h0.7    c0.4,0,0.9-0.3,1-0.8l1.1-5.8c0.7-0.6,1.4-1.2,2.4-1.2c0.2,0,0.4,0,0.6,0.1l0.2,0.1l0.5-1.3L123.4,52.4z"/> <path class="st1" d="M220,52.3c-0.9,0-1.7,0.3-2.5,0.9l0-0.7h-1.3l-1.7,8.8l0,0.1h0.7c0.4,0,0.9-0.3,1-0.8l1.1-5.8    c0.7-0.6,1.4-1.2,2.4-1.2c0.2,0,0.4,0,0.6,0.1l0.2,0.1l0.5-1.3l-0.3-0.1C220.5,52.3,220.2,52.3,220,52.3z"/> <path class="st1" d="M157.1,52.3c-1,0-1.9,0.5-2.8,1.5l1.1-5.8l0-0.1H155c-0.5,0-1,0.4-1.1,0.9l-2.4,12.5l0,0.1h0.7    c0.4,0,0.9-0.3,1-0.8l0.9-4.5c1-1.6,2-2.4,3-2.4c0.4,0,0.6,0.1,0.7,0.2c0.2,0.2,0.2,0.7,0.1,1.3l-1.2,6.1l0,0.1h0.7    c0.4,0,0.9-0.3,1-0.8l1-5.4c0.2-0.9,0.1-1.7-0.4-2.2C158.5,52.5,157.9,52.3,157.1,52.3z"/> <path class="st1" d="M232.2,52.5l-3.4,6.4l-1.2-6.3l0-0.1h-1.5l1.6,8.2c0.1,0.4,0.4,0.7,0.9,0.7c0.3,0,0.5-0.1,0.7-0.3l0,0    l4.6-8.6H232.2z"/> <path class="st1" d="M106.1,48.8l-2,10.5c-0.1,0.7-0.1,1.2,0.2,1.5c0.3,0.3,0.7,0.5,1.3,0.5c0.3,0,0.7-0.1,1.1-0.2l0.2-0.1l-0.3-1    l-0.3,0.1c-0.2,0.1-0.4,0.1-0.6,0.1c-0.2,0-0.2,0-0.2-0.1c0,0-0.1-0.1,0-0.4l2.2-11.8l0-0.1h-0.5    C106.7,47.9,106.2,48.3,106.1,48.8z"/> <path class="st1" d="M94.5,52.5h-1.6c-0.1,0-0.3,0.1-0.3,0.2l-2.4,2.7l-1.3-2.6c-0.1-0.2-0.3-0.3-0.4-0.3h-1.2l2,4l-4.2,4.7l1.6,0    c0.1,0,0.3-0.1,0.3-0.2l2.9-3.3l1.6,3.2c0.1,0.1,0.2,0.2,0.4,0.2l1.3,0l-2.3-4.5L94.5,52.5z"/> <path class="st1" d="M221.3,61.3L221.3,61.3l0.7,0.1c0.4,0,0.9-0.3,1-0.8l1.5-8l0-0.1H223L221.3,61.3z"/> <path class="st1" d="M182.9,52.3c-2.1,0-3.3,1.2-3.4,2.4c-0.1,1.2,0.6,1.9,2.4,2.4c1.5,0.4,1.7,0.8,1.7,1.5c0,0.8-0.7,1.3-1.9,1.4    c-1.1,0.1-2-0.1-2.8-0.7l-0.2-0.1L178,60l0.2,0.2c0.9,0.8,1.9,1.2,3.2,1.2c2.2,0,3.6-1.1,3.7-2.8c0.1-1.3-0.7-2.1-2.5-2.6    c-1.4-0.4-1.7-0.7-1.6-1.2c0-0.6,0.6-1,1.4-1.1l0,0c0.9-0.1,1.7,0,2.5,0.5l0.2,0.1l0.7-0.7l-0.2-0.2    C184.8,52.6,184,52.3,182.9,52.3z"/> </g> <path class="st1" d="M225,48.1c-0.1-0.1-0.4-0.2-0.6-0.2c-0.5,0-0.9,0.4-1,0.9c0,0.2,0.1,0.4,0.2,0.5c0.1,0.1,0.4,0.2,0.6,0.2   c0.5,0,0.9-0.4,1-0.9C225.1,48.4,225.1,48.2,225,48.1z"/> <g> <path class="st1" d="M286.8,12.4c-11.1,1.1-22.3,5.6-32.8,12.3l-0.3,0.4l-2.9,16.7l4-0.4l4,0.4h22.9c0-1,2-20.6,6.1-28.4    L286.8,12.4z"/> <path class="st0" d="M289.5,0h-18.9c-6.9,0-13.5,5.6-14.7,12.5l-2.2,12.5c10.8-7,22.3-11.2,33.2-12.3c-13,5.4-25.8,15.2-35.9,28.7    c-0.1,0.1-0.1,0.2-0.2,0.2h8.3c7.4-12.7,17.5-22.5,28.3-28.6c-3.9,7.6-6.2,16.3-6.2,25.7c0,1,0,1.9,0.1,2.9h0.9    c6.9,0,13.5-5.6,14.7-12.5l2.9-16.7C301,5.6,296.4,0,289.5,0z"/> </g> </g> </symbol>
            </use>
</svg>
