<svg id="visual" viewBox="0 0 1000 80" width="1000" height="80" xmlns="http://www.w3.org/2000/svg" xmlns:xlink="http://www.w3.org/1999/xlink" version="1.1"><rect x="0" y="0" width="1000" height="80" fill="#0e1d23"></rect><path d="M0 40L125 13L250 31L375 36L500 48L625 24L750 48L875 45L1000 15L1000 81L875 81L750 81L625 81L500 81L375 81L250 81L125 81L0 81Z" fill="#124255"></path><path d="M0 31L125 56L250 42L375 40L500 61L625 30L750 35L875 44L1000 59L1000 81L875 81L750 81L625 81L500 81L375 81L250 81L125 81L0 81Z" fill="#112f3b"></path><path d="M0 56L125 48L250 59L375 47L500 57L625 59L750 56L875 72L1000 61L1000 81L875 81L750 81L625 81L500 81L375 81L250 81L125 81L0 81Z" fill="#0e1d23"></path></svg>
