<svg id="visual" viewBox="0 0 1000 200" width="1000" height="200" xmlns="http://www.w3.org/2000/svg" xmlns:xlink="http://www.w3.org/1999/xlink" version="1.1"><rect x="0" y="0" width="1000" height="200" fill="#0e1d23"></rect><path d="M0 47L56 61L111 48L167 49L222 29L278 47L333 37L389 36L444 57L500 39L556 53L611 38L667 53L722 33L778 37L833 56L889 61L944 42L1000 49L1000 201L944 201L889 201L833 201L778 201L722 201L667 201L611 201L556 201L500 201L444 201L389 201L333 201L278 201L222 201L167 201L111 201L56 201L0 201Z" fill="#00f284"></path><path d="M0 72L56 71L111 80L167 61L222 65L278 69L333 65L389 70L444 53L500 57L556 78L611 52L667 55L722 63L778 51L833 59L889 63L944 58L1000 58L1000 201L944 201L889 201L833 201L778 201L722 201L667 201L611 201L556 201L500 201L444 201L389 201L333 201L278 201L222 201L167 201L111 201L56 201L0 201Z" fill="#00d391"></path><path d="M0 69L56 74L111 82L167 69L222 75L278 86L333 82L389 67L444 85L500 96L556 89L611 85L667 74L722 91L778 84L833 97L889 72L944 89L1000 82L1000 201L944 201L889 201L833 201L778 201L722 201L667 201L611 201L556 201L500 201L444 201L389 201L333 201L278 201L222 201L167 201L111 201L56 201L0 201Z" fill="#00b393"></path><path d="M0 111L56 87L111 115L167 115L222 113L278 89L333 93L389 101L444 103L500 115L556 108L611 105L667 103L722 104L778 114L833 88L889 88L944 106L1000 95L1000 201L944 201L889 201L833 201L778 201L722 201L667 201L611 201L556 201L500 201L444 201L389 201L333 201L278 201L222 201L167 201L111 201L56 201L0 201Z" fill="#009289"></path><path d="M0 114L56 114L111 124L167 110L222 110L278 121L333 133L389 116L444 127L500 114L556 112L611 111L667 114L722 113L778 117L833 131L889 123L944 110L1000 109L1000 201L944 201L889 201L833 201L778 201L722 201L667 201L611 201L556 201L500 201L444 201L389 201L333 201L278 201L222 201L167 201L111 201L56 201L0 201Z" fill="#007275"></path><path d="M0 146L56 128L111 147L167 146L222 140L278 142L333 129L389 143L444 131L500 132L556 145L611 136L667 129L722 140L778 150L833 147L889 148L944 130L1000 148L1000 201L944 201L889 201L833 201L778 201L722 201L667 201L611 201L556 201L500 201L444 201L389 201L333 201L278 201L222 201L167 201L111 201L56 201L0 201Z" fill="#08545c"></path><path d="M0 163L56 152L111 162L167 151L222 165L278 166L333 158L389 165L444 160L500 159L556 152L611 156L667 153L722 162L778 160L833 154L889 160L944 149L1000 157L1000 201L944 201L889 201L833 201L778 201L722 201L667 201L611 201L556 201L500 201L444 201L389 201L333 201L278 201L222 201L167 201L111 201L56 201L0 201Z" fill="#103740"></path><path d="M0 168L56 168L111 174L167 177L222 186L278 177L333 173L389 183L444 184L500 177L556 175L611 175L667 178L722 181L778 177L833 184L889 185L944 168L1000 171L1000 201L944 201L889 201L833 201L778 201L722 201L667 201L611 201L556 201L500 201L444 201L389 201L333 201L278 201L222 201L167 201L111 201L56 201L0 201Z" fill="#0e1d23"></path></svg>
