<svg id="visual" viewBox="0 0 1000 100" width="1000" height="100" xmlns="http://www.w3.org/2000/svg" xmlns:xlink="http://www.w3.org/1999/xlink" version="1.1"><rect x="0" y="0" width="1000" height="100" fill="#0e1d23"></rect><path d="M0 53L67 75L133 38L200 23L267 45L333 73L400 36L467 61L533 55L600 61L667 58L733 21L800 37L867 27L933 63L1000 76L1000 0L933 0L867 0L800 0L733 0L667 0L600 0L533 0L467 0L400 0L333 0L267 0L200 0L133 0L67 0L0 0Z" fill="#124255"></path><path d="M0 16L67 39L133 24L200 60L267 21L333 49L400 62L467 35L533 25L600 57L667 32L733 59L800 31L867 37L933 34L1000 49L1000 0L933 0L867 0L800 0L733 0L667 0L600 0L533 0L467 0L400 0L333 0L267 0L200 0L133 0L67 0L0 0Z" fill="#257d8b"></path><path d="M0 13L67 45L133 36L200 15L267 13L333 25L400 30L467 46L533 22L600 41L667 43L733 15L800 44L867 44L933 35L1000 45L1000 0L933 0L867 0L800 0L733 0L667 0L600 0L533 0L467 0L400 0L333 0L267 0L200 0L133 0L67 0L0 0Z" fill="#53bdb6"></path><path d="M0 9L67 10L133 10L200 14L267 8L333 23L400 22L467 16L533 30L600 17L667 8L733 8L800 13L867 17L933 25L1000 8L1000 0L933 0L867 0L800 0L733 0L667 0L600 0L533 0L467 0L400 0L333 0L267 0L200 0L133 0L67 0L0 0Z" fill="#9dffd3"></path></svg>
