<svg id="visual" viewBox="0 0 1000 60" width="1000" height="60" xmlns="http://www.w3.org/2000/svg" xmlns:xlink="http://www.w3.org/1999/xlink" version="1.1"><rect x="0" y="0" width="1000" height="60" fill="#0e1d23"></rect><path d="M0 35L67 13L133 44L200 35L267 19L333 30L400 31L467 14L533 35L600 11L667 23L733 31L800 14L867 14L933 14L1000 23L1000 0L933 0L867 0L800 0L733 0L667 0L600 0L533 0L467 0L400 0L333 0L267 0L200 0L133 0L67 0L0 0Z" fill="#124255"></path><path d="M0 31L67 41L133 30L200 19L267 18L333 29L400 21L467 28L533 38L600 32L667 34L733 41L800 32L867 39L933 27L1000 10L1000 0L933 0L867 0L800 0L733 0L667 0L600 0L533 0L467 0L400 0L333 0L267 0L200 0L133 0L67 0L0 0Z" fill="#185b6d"></path><path d="M0 32L67 21L133 34L200 15L267 17L333 33L400 30L467 29L533 18L600 23L667 36L733 35L800 15L867 16L933 23L1000 9L1000 0L933 0L867 0L800 0L733 0L667 0L600 0L533 0L467 0L400 0L333 0L267 0L200 0L133 0L67 0L0 0Z" fill="#217484"></path><path d="M0 22L67 9L133 16L200 13L267 31L333 29L400 20L467 8L533 14L600 25L667 13L733 10L800 24L867 9L933 27L1000 7L1000 0L933 0L867 0L800 0L733 0L667 0L600 0L533 0L467 0L400 0L333 0L267 0L200 0L133 0L67 0L0 0Z" fill="#2f8f98"></path><path d="M0 7L67 20L133 9L200 24L267 8L333 11L400 25L467 22L533 20L600 6L667 16L733 24L800 17L867 11L933 10L1000 17L1000 0L933 0L867 0L800 0L733 0L667 0L600 0L533 0L467 0L400 0L333 0L267 0L200 0L133 0L67 0L0 0Z" fill="#43abab"></path><path d="M0 13L67 8L133 20L200 17L267 8L333 13L400 8L467 14L533 12L600 6L667 15L733 12L800 5L867 6L933 15L1000 19L1000 0L933 0L867 0L800 0L733 0L667 0L600 0L533 0L467 0L400 0L333 0L267 0L200 0L133 0L67 0L0 0Z" fill="#5cc7ba"></path><path d="M0 8L67 8L133 13L200 10L267 14L333 7L400 6L467 7L533 13L600 5L667 6L733 14L800 8L867 10L933 11L1000 11L1000 0L933 0L867 0L800 0L733 0L667 0L600 0L533 0L467 0L400 0L333 0L267 0L200 0L133 0L67 0L0 0Z" fill="#7ae3c8"></path><path d="M0 4L67 5L133 8L200 3L267 2L333 8L400 7L467 7L533 9L600 4L667 9L733 8L800 7L867 3L933 3L1000 4L1000 0L933 0L867 0L800 0L733 0L667 0L600 0L533 0L467 0L400 0L333 0L267 0L200 0L133 0L67 0L0 0Z" fill="#9dffd3"></path></svg>
